<?xml version="1.0" encoding="UTF-8"?>
<svg version="1.1" viewBox="0 0 50 50" xmlns="http://www.w3.org/2000/svg"><path d="m28.903 9.8498 0.86126 9.0856 8.7425-1.1968-5.6676 6.6172 7.4272 5.5252-8.8763 0.27247 1.7611 9.0106-6.8855-6.2317-4.9366 7.2177-0.86112-9.0855-8.7425 1.1968 5.6676-6.6172-7.4272-5.5252 8.8763-0.27247-1.7611-9.0106 6.8855 6.2317z" fill="#ffd42a" stroke-width=".53536"/><circle cx="36.25" cy="25.025" r="11.25" fill="#00f" stroke-width=".29765"/><circle cx="13.75" cy="25.025" r="11.25" fill="#008000" stroke-width=".29765"/><path d="m27.376 15.24 0.56122 5.8071 5.6953-0.76496-3.692 4.2294 4.8385 3.5314-5.7824 0.17418 1.1474 5.7591-4.4856-3.983-3.2158 4.6132-0.56112-5.807-5.6953 0.76496 3.692-4.2294-4.8385-3.5314 5.7824-0.17418-1.1474-5.7591 4.4856 3.983z" fill="#f60" stroke-width=".34545"/><path d="m30.746 18.652-2.0146 4.4248 4.4289 1.8209-4.4267 1.514 2.0205 4.5646-4.2457-2.2836-1.5716 4.6344-1.5776-4.7435-4.243 1.9894 2.0146-4.4247-4.4289-1.8209 4.4267-1.514-2.0205-4.5646 4.2457 2.2836 1.5716-4.6344 1.5776 4.7435z" fill="#f00" stroke-width=".28788"/></svg>
